<?xml version="1.0" encoding="utf-8"?>
<!-- Generator: Adobe Illustrator 19.0.0, SVG Export Plug-In . SVG Version: 6.00 Build 0)  -->
<svg version="1.1" id="Calque_1" xmlns="http://www.w3.org/2000/svg" xmlns:xlink="http://www.w3.org/1999/xlink" x="0px" y="0px"
	 viewBox="0 0 364.1 165" style="enable-background:new 0 0 364.1 165;" xml:space="preserve">
<style type="text/css">
	.st0{fill:none;stroke:#404040;stroke-width:2.8751;stroke-miterlimit:10;}
	.st1{fill:none;stroke:#404040;stroke-width:2.8751;stroke-linecap:round;stroke-linejoin:round;stroke-miterlimit:10;}
	.st2{fill:none;stroke:#404040;stroke-width:3;stroke-miterlimit:10;}
</style>
<path id="XMLID_12_" class="st0" d="M227.6,16.5c0,0,14-24.1,82,4.7l-0.2,3.3c0,0-24.8-5.9-37.3-3.9l-8.4,1.3c0,0-2.4,0.3-0.8,2.9
	s11.6,19,11.6,19l-12.2,9.9c0,0-12.8-10.5-15.8-11.5c-2.9-0.9-10.6,1.3-13.2,6.8S229.1,60,229.1,60l-2.9,2.4l-2.9-0.8l-19.6-23.9
	l-0.2-2.2l4.5-3.7c0,0,11-1.2,12.6-2.3C222.2,28.5,229.3,22.9,227.6,16.5z"/>
<rect id="XMLID_11_" x="268.1" y="59.6" transform="matrix(0.6338 0.7735 -0.7735 0.6338 156.143 -194.9248)" class="st0" width="31.7" height="15.6"/>
<path id="XMLID_10_" class="st0" d="M342.1,158"/>
<path id="XMLID_9_" class="st0" d="M359.6,143.6"/>
<path id="XMLID_8_" class="st0" d="M209.8,31.7c0,0,0.2,3.3,1.6,5c1.4,1.7,4.1,2.3,4.1,2.3s-0.6,2.3,2.7,6s5.9,4.1,5.9,4.1
	s-0.6,2.7,1.5,4.9c2.1,2.2,4.7,2.6,4.7,2.6"/>
<polyline id="XMLID_7_" class="st0" points="224.1,49.2 237.9,34.9 232.6,28.5 215.4,39 "/>
<path id="XMLID_6_" class="st0" d="M271.1,46.1c0,0-14.3-13.9-19.5-14.1s-13.8,2.9-13.8,2.9"/>
<polygon id="XMLID_5_" class="st1" points="341.2,154 331.3,150.9 356.2,130.4 357.3,140.7 "/>
<line id="XMLID_4_" class="st0" x1="232.6" y1="28.5" x2="227.8" y2="16.9"/>
<path id="XMLID_3_" class="st0" d="M300.6,74.3l-13.4,11c0,0,0.2,8.1,11.9,22.3c11.6,14.2,30.2,41.3,32.3,43.2l24.9-20.4
	c-1.4-2.5-24.4-26-36-40.2c-11.6-14.2-19.5-16-19.5-16l-13.4,11"/>
<rect id="XMLID_2_" x="266.9" y="43.9" transform="matrix(0.6285 0.7778 -0.7778 0.6285 141.1923 -191.5806)" class="st0" width="8.4" height="16.1"/>
<line id="XMLID_65_" class="st2" x1="199" y1="157.8" x2="0" y2="157.8"/>
</svg>
