<!--?xml version="1.0" encoding="utf-8"?-->
<!-- Generator: Adobe Illustrator 19.0.0, SVG Export Plug-In . SVG Version: 6.00 Build 0)  -->
<svg version="1.1" id="Calque_1" xmlns="http://www.w3.org/2000/svg" xmlns:xlink="http://www.w3.org/1999/xlink" x="0px" y="0px" viewBox="-262 227 434 108" enable-background="new -262 227 434 108" xml:space="preserve">
<path id="XMLID_1_" fill="none" stroke="#414141" stroke-width="3" stroke-miterlimit="10" d="M-256,311.5L43,311.5" class="lSZqoUXm_0"></path>
<g>
	<path id="XMLID_582_" fill="none" stroke="#414141" stroke-width="3" stroke-linejoin="round" stroke-miterlimit="10" d="
		M110.5,256L110.5,256c-32.1,1.1-52.8,27.5-52.8,27.5c17.6,23.7,36,31.4,52.8,31.3l0,0c32.1-1.1,52.8-27.5,52.8-27.5
		C145.7,263.6,127.3,255.9,110.5,256z" class="lSZqoUXm_1"></path>
	
		<path id="XMLID_581_" fill="none" stroke="#414141" stroke-width="3" stroke-linejoin="round" stroke-miterlimit="10" d="M81.2,285.3A29.3,29.3 0,1,1 139.8,285.3A29.3,29.3 0,1,1 81.2,285.3" class="lSZqoUXm_2"></path>
	
		<path id="XMLID_580_" fill="none" stroke="#414141" stroke-width="3" stroke-linejoin="round" stroke-miterlimit="10" d="M101.3,285.3A9.2,9.2 0,1,1 119.7,285.3A9.2,9.2 0,1,1 101.3,285.3" class="lSZqoUXm_3"></path>
</g>
<style>.lSZqoUXm_0{stroke-dasharray:299 301;stroke-dashoffset:300;animation:lSZqoUXm_draw_0 5700ms ease-out 0ms infinite,lSZqoUXm_fade 5700ms linear 0ms infinite;}.lSZqoUXm_1{stroke-dasharray:251 253;stroke-dashoffset:252;animation:lSZqoUXm_draw_1 5700ms ease-out 0ms infinite,lSZqoUXm_fade 5700ms linear 0ms infinite;}.lSZqoUXm_2{stroke-dasharray:185 187;stroke-dashoffset:186;animation:lSZqoUXm_draw_2 5700ms ease-out 0ms infinite,lSZqoUXm_fade 5700ms linear 0ms infinite;}.lSZqoUXm_3{stroke-dasharray:58 60;stroke-dashoffset:59;animation:lSZqoUXm_draw_3 5700ms ease-out 0ms infinite,lSZqoUXm_fade 5700ms linear 0ms infinite;}@keyframes lSZqoUXm_draw{100%{stroke-dashoffset:0;}}@keyframes lSZqoUXm_fade{0%{stroke-opacity:1;}92.98245614035088%{stroke-opacity:1;}100%{stroke-opacity:0;}}@keyframes lSZqoUXm_draw_0{14.035087719298245%{stroke-dashoffset: 300}31.57894736842105%{ stroke-dashoffset: 0;}100%{ stroke-dashoffset: 0;}}@keyframes lSZqoUXm_draw_1{16.95906432748538%{stroke-dashoffset: 252}34.50292397660819%{ stroke-dashoffset: 0;}100%{ stroke-dashoffset: 0;}}@keyframes lSZqoUXm_draw_2{19.883040935672515%{stroke-dashoffset: 186}37.42690058479531%{ stroke-dashoffset: 0;}100%{ stroke-dashoffset: 0;}}@keyframes lSZqoUXm_draw_3{22.807017543859647%{stroke-dashoffset: 59}40.35087719298245%{ stroke-dashoffset: 0;}100%{ stroke-dashoffset: 0;}}</style></svg>
